<svg xmlns="http://www.w3.org/2000/svg" viewBox="0 0 515 588" width="515" height="588">
    <style type="text/css">.a{fill:#bf2f38}.b{opacity:.5;fill:#e24c6b;enable-background:new}.c{fill:#ffffff}</style>
    <path class="a" d="M89 91.8v415.2h415.5c7-27.6 10.5-56 10.5-84.4 0-188.7-152.5-341.6-340.7-341.6-28.8 0-57.4 3.6-85.3 10.8z"/>
    <path class="b" d="M0 293.4l293 293.6c24.4-14.6 46.9-32.2 67-52.3 133.1-133.2 133.4-349.1.7-482-20.3-20.4-43.1-38.1-67.8-52.7l-292.9 293.4z"/>
    <path class="c" d="M154.6 293.5h16.7v7.4h-26.3v-39.8h9.6v32.4zm29.8 7.4h-9.6v-39.8h9.6v39.8zm-3.6-50.5h9.7l-7.6 8.6h-7.5l5.4-8.6zm9.1 50.5v-39.8h12.8c3.5 0 6.7.8 9.5 2.4 2.8 1.6 5 3.8 6.6 6.8 1.6 2.9 2.4 6.2 2.4 9.8v1.8c0 3.6-.8 6.9-2.3 9.8s-3.7 5.2-6.5 6.8c-2.8 1.6-5.9 2.5-9.4 2.5l-13.1-.1zm9.6-32.4v25h3.3c2.7 0 4.9-1 6.3-2.9 1.5-2 2.2-4.9 2.2-8.7v-1.7c0-3.8-.7-6.7-2.2-8.7s-3.6-2.9-6.4-2.9l-3.2-.1zm50.1 15.5h-15.1v9.5h17.8v7.4h-27.3v-39.8h27.4v7.4h-17.9v8.4h15.1v7.1zm20.3 2.8h-5.2v14.1h-9.6v-39.8h15.6c4.7 0 8.4 1 11.1 3.1 2.7 2.1 4 5.1 4 8.9 0 2.8-.6 5.1-1.7 6.9-1.1 1.8-2.9 3.3-5.3 4.4l8.3 16.1v.4h-10.3l-6.9-14.1zm-5.2-7.4h6.1c1.8 0 3.2-.5 4.1-1.4.9-1 1.4-2.3 1.4-4 0-1.7-.5-3.1-1.4-4-.9-.9-2.3-1.5-4.1-1.5h-6.1v10.9zm63.4 4.6h-15.1v9.5h17.8v7.4h-27.4v-39.8h27.4v7.4h-17.9v8.4h15.2v7.1zm18.1-22.9l8.9 27.7 8.8-27.7h12.6v39.8h-9.6v-9.3l.9-19-9.6 28.3h-6.3l-9.6-28.4.9 19.1v9.3h-9.6v-39.8h12.6zm-191.6 83.4v13.5h-9.6v-39.8h15.9c3 0 5.7.6 8.1 1.7 2.3 1.1 4.2 2.7 5.4 4.8 1.3 2.1 1.9 4.4 1.9 7 0 3.9-1.4 7-4.2 9.3-2.8 2.3-6.6 3.5-11.4 3.5h-6.1zm0-7.4h6.3c1.9 0 3.3-.5 4.2-1.4 1-.9 1.5-2.2 1.5-3.9 0-1.9-.5-3.3-1.5-4.5-1-1.1-2.4-1.7-4.1-1.7h-6.4v11.5zm35.3 13.5h16.7v7.4h-26.3v-39.8h9.6v32.4zm42.7 0h-13.1l-2.3 7.4h-10.2l14.6-39.8h9l14.7 39.8h-10.3l-2.4-7.4zm-10.9-7.4h8.5l-4.3-13.8-4.2 13.8zm58.6 14.8h-9.5l-14.1-24.8v24.8h-9.7v-39.8h9.6l14.1 24.8v-24.8h9.6v39.8zm38.6-19.1c0 3.9-.7 7.3-2.2 10.3-1.4 3-3.5 5.3-6.1 6.9s-5.7 2.4-9.1 2.4c-3.4 0-6.4-.8-9-2.3-2.6-1.6-4.7-3.8-6.1-6.7-1.5-2.9-2.2-6.2-2.3-10v-2.2c0-3.9.7-7.3 2.1-10.3 1.4-3 3.5-5.3 6.1-6.9 2.7-1.6 5.7-2.4 9.1-2.4s6.4.8 9 2.4c2.6 1.6 4.7 3.9 6.2 6.9 1.5 3 2.2 6.4 2.2 10.2v1.7h.1zm-9.8-1.6c0-4-.7-7-2-9-1.3-2.1-3.2-3.1-5.7-3.1-4.8 0-7.3 3.6-7.6 10.8v2.9c0 3.9.6 6.9 1.9 9 1.3 2.1 3.2 3.1 5.8 3.1 2.4 0 4.3-1 5.6-3.1 1.3-2.1 2-5 2-8.9v-1.7zm34.1 10.1c0-1.4-.5-2.5-1.5-3.3-1-.8-2.7-1.6-5.2-2.4-2.5-.8-4.5-1.6-6.1-2.4-5.2-2.5-7.7-6-7.7-10.4 0-2.2.6-4.2 1.9-5.8 1.3-1.7 3.1-3 5.4-3.9s5-1.4 7.9-1.4c2.9 0 5.4.5 7.7 1.5s4 2.5 5.3 4.4c1.3 1.9 1.9 4 1.9 6.5h-9.6c0-1.6-.5-2.9-1.5-3.8-1-.9-2.3-1.3-4-1.3-1.7 0-3.1.4-4.1 1.1-1 .8-1.5 1.7-1.5 2.9 0 1 .5 1.9 1.6 2.8 1.1.8 3 1.7 5.8 2.6 2.7.9 5 1.8 6.8 2.9 4.3 2.5 6.4 5.9 6.4 10.3 0 3.5-1.3 6.2-3.9 8.2-2.6 2-6.2 3-10.8 3-3.2 0-6.1-.6-8.8-1.7-2.6-1.2-4.6-2.7-5.9-4.8-1.3-2-2-4.3-2-7h9.6c0 2.1.5 3.7 1.7 4.7 1.1 1 2.9 1.5 5.4 1.5 1.6 0 2.8-.3 3.8-1 .9-.9 1.4-1.9 1.4-3.2zm-198.2 67.7v-39.8h12.8c3.5 0 6.7.8 9.5 2.4 2.8 1.6 5 3.8 6.6 6.8 1.6 2.9 2.4 6.2 2.4 9.8v1.8c0 3.6-.8 6.9-2.3 9.8s-3.7 5.2-6.5 6.8c-2.8 1.6-5.9 2.5-9.4 2.5l-13.1-.1zm9.6-32.5v25h3.3c2.7 0 4.9-1 6.3-2.9 1.5-2 2.2-4.9 2.2-8.7v-1.7c0-3.8-.7-6.7-2.2-8.7s-3.6-2.9-6.4-2.9l-3.2-.1zm50.1 15.5h-15.1v9.5h17.8v7.4h-27.4v-39.8h27.4v7.4h-17.9v8.4h15.1l.1 7.1zm38.8 6.4c0-1.4-.5-2.5-1.5-3.3-1-.8-2.7-1.6-5.2-2.4s-4.5-1.6-6.1-2.4c-5.2-2.5-7.7-6-7.7-10.4 0-2.2.6-4.2 1.9-5.8 1.3-1.7 3.1-3 5.4-3.9 2.3-.9 5-1.4 7.9-1.4 2.9 0 5.4.5 7.7 1.5s4 2.5 5.3 4.4 1.9 4 1.9 6.5h-9.6c0-1.6-.5-2.9-1.5-3.8-1-.9-2.3-1.3-4-1.3-1.7 0-3.1.4-4.1 1.1-1 .8-1.5 1.7-1.5 2.9 0 1 .5 1.9 1.6 2.8 1.1.8 3 1.7 5.8 2.6 2.7.9 5 1.8 6.8 2.9 4.3 2.5 6.4 5.9 6.4 10.3 0 3.5-1.3 6.2-3.9 8.2s-6.2 3-10.8 3c-3.2 0-6.1-.6-8.8-1.7-2.6-1.2-4.6-2.7-5.9-4.8-1.3-2-2-4.3-2-7h9.6c0 2.1.6 3.7 1.7 4.7s2.9 1.5 5.4 1.5c1.6 0 2.8-.3 3.8-1 1-1 1.4-2 1.4-3.2zm36.1 3.1h-13.1l-2.3 7.4h-10.2l14.6-39.8h9l14.7 39.8h-10.3l-2.4-7.4zm-11-7.4h8.5l-4.3-13.8-4.2 13.8zm56.1-25v26.1c0 3-.6 5.5-1.9 7.7-1.3 2.2-3.1 3.8-5.4 4.9s-5.1 1.7-8.3 1.7c-4.8 0-8.7-1.3-11.4-3.8-2.7-2.5-4.2-6-4.3-10.3v-26.3h9.6v26.4c.1 4.4 2.1 6.5 6.1 6.5 2 0 3.5-.5 4.5-1.6s1.5-2.9 1.5-5.3v-26h9.6zm-14.6-10.6h9.7l-7.6 8.6h-7.5l5.4-8.6zm19.4 50.5v-39.8h12.8c3.5 0 6.7.8 9.5 2.4 2.8 1.6 5 3.8 6.6 6.8 1.6 2.9 2.4 6.2 2.4 9.8v1.8c0 3.6-.8 6.9-2.3 9.8s-3.7 5.2-6.5 6.8c-2.8 1.6-5.9 2.5-9.4 2.5l-13.1-.1zm9.6-32.5v25h3.3c2.7 0 4.9-1 6.3-2.9 1.5-2 2.2-4.9 2.2-8.7v-1.7c0-3.8-.7-6.7-2.2-8.7s-3.6-2.9-6.4-2.9l-3.2-.1zm50.1 15.5h-15.1v9.5h17.8v7.4h-27.4v-39.8h27.4v7.4h-17.9v8.4h15.1v7.1h.1zm10.8 8c1.5 0 2.7.4 3.6 1.3 1 .9 1.4 2 1.4 3.3 0 1.4-.5 2.5-1.4 3.3-1 .9-2.2 1.3-3.6 1.3-1.5 0-2.7-.4-3.6-1.3-.9-.9-1.4-2-1.4-3.3s.5-2.4 1.4-3.3c.9-.9 2.1-1.3 3.6-1.3zm-231-179.2h-14.7v9.3h17.3v7.2h-26.6v-38.7h26.7v7.2h-17.4v8.2h14.7v6.8zm17.7-22.3l8.6 27 8.6-27h12.3v38.7h-9.4v-9l.9-18.5-9.4 27.6h-6.2l-9.4-27.6.9 18.5v9h-9.3v-38.7h12.4zm43.7 25.6v13.1h-9.3v-38.7h15.5c3 0 5.6.5 7.9 1.6 2.3 1.1 4 2.6 5.3 4.7 1.3 2 1.9 4.3 1.9 6.9 0 3.8-1.4 6.8-4.1 9.1s-6.4 3.4-11.1 3.4h-6.1v-.1zm0-7.2h6.1c1.8 0 3.2-.5 4.1-1.4.9-.9 1.4-2.2 1.4-3.8 0-1.8-.5-3.3-1.5-4.3-1-1.1-2.3-1.6-4-1.6h-6.2v11.1h.1zm39.4 6.7h-5.1v13.7h-9.3v-38.7h15.2c4.6 0 8.2 1 10.8 3.1 2.6 2 3.9 4.9 3.9 8.6 0 2.7-.5 4.9-1.6 6.7-1.1 1.8-2.8 3.2-5.1 4.3l8.1 15.6v.4h-10l-6.9-13.7zm-5-7.2h5.9c1.8 0 3.1-.5 4-1.4.9-.9 1.3-2.2 1.3-3.9 0-1.7-.5-3-1.4-3.9-.9-1-2.2-1.4-4-1.4h-5.9v10.6h.1zm49.2 4.4h-14.7v9.3h17.3v7.2h-26.7v-38.7h26.7v7.2h-17.4v8.2h14.7v6.8h.1zm25.4 6.2c0-1.4-.5-2.4-1.4-3.2-1-.8-2.7-1.6-5.1-2.4-2.4-.8-4.4-1.6-6-2.4-5-2.5-7.5-5.9-7.5-10.2 0-2.1.6-4 1.9-5.7 1.3-1.6 3-2.9 5.3-3.8 2.3-.9 4.9-1.4 7.7-1.4s5.3.5 7.5 1.5 3.9 2.4 5.1 4.2c1.2 1.8 1.8 3.9 1.8 6.3h-9.3c0-1.6-.5-2.8-1.4-3.7-1-.9-2.3-1.3-3.9-1.3-1.7 0-3 .4-4 1.1s-1.4 1.7-1.4 2.8c0 1 .5 1.9 1.6 2.7 1.1.8 2.9 1.6 5.6 2.5s4.9 1.8 6.6 2.8c4.2 2.4 6.3 5.7 6.3 10 0 3.4-1.3 6-3.8 8-2.6 1.9-6.1 2.9-10.5 2.9-3.1 0-6-.6-8.5-1.7s-4.5-2.7-5.7-4.6c-1.3-2-1.9-4.2-1.9-6.8h9.4c0 2.1.5 3.6 1.6 4.6s2.8 1.5 5.2 1.5c1.5 0 2.8-.3 3.7-1 .6-.6 1.1-1.5 1.1-2.7zm35 3h-12.8l-2.2 7.2h-10l14.2-38.7h8.8l14.3 38.7h-10l-2.3-7.2zm-10.6-7.2h8.3l-4.2-13.4-4.1 13.4z"/>
</svg>
