<svg xmlns="http://www.w3.org/2000/svg" viewBox="0 0 515 588" width="515" height="588">
	<style type="text/css">.a{fill:#bf2f38;}.b{opacity:.5;fill:#e24c6b;enable-background:new}.c{fill:#ffffff}</style>
	<path class="a" d="M426 507v-415.5c-27.6-7-56-10.5-84.4-10.5-188.7 0-341.6 152.5-341.6 340.7 0 28.8 3.6 57.4 10.8 85.3h415.2z"/>
	<path class="b" d="M515 294.1l-293-293.6c-24.4 14.6-46.9 32.2-67 52.3-133.1 133.2-133.4 349.1-.7 482 20.3 20.4 43.1 38.1 67.8 52.7l292.9-293.4z"/>
	<path class="c" d="M157.7 203.9h-13.2v35.8h-10.5v-35.8h-13v-8.2h36.7v8.2zm30.5 17.1h-16.7v10.5h19.7v8.2h-30.2v-44h30.3v8.2h-19.7v9.3h16.7v7.8h-.1zm20.1-25.3l9.8 30.6 9.8-30.6h13.9v44h-10.6v-10.3l1-21-10.6 31.3h-7l-10.7-31.4 1 21.1v10.3h-10.6v-44h14zm76.2 22.9c0 4.3-.8 8.1-2.4 11.4-1.6 3.3-3.8 5.9-6.8 7.6-2.9 1.8-6.3 2.7-10 2.7s-7.1-.9-10-2.6-5.2-4.2-6.8-7.4c-1.6-3.2-2.5-6.9-2.6-11v-2.5c0-4.3.8-8.1 2.4-11.4s3.8-5.8 6.8-7.6c2.9-1.8 6.3-2.7 10.1-2.7 3.7 0 7 .9 10 2.7 2.9 1.8 5.2 4.3 6.8 7.6 1.6 3.3 2.4 7 2.5 11.3v1.9zm-10.8-1.8c0-4.4-.7-7.7-2.2-10s-3.5-3.4-6.3-3.4c-5.3 0-8.1 4-8.4 12v3.2c0 4.3.7 7.6 2.1 9.9 1.4 2.3 3.6 3.5 6.4 3.5 2.7 0 4.7-1.1 6.2-3.4 1.4-2.3 2.2-5.6 2.2-9.8v-2zm37.7 11.2c0-1.6-.5-2.8-1.6-3.6-1.1-.9-3-1.8-5.8-2.7-2.8-.9-5-1.8-6.8-2.7-5.7-2.8-8.5-6.7-8.5-11.5 0-2.4.7-4.6 2.1-6.5s3.4-3.3 6-4.4c2.6-1 5.5-1.6 8.8-1.6 3.2 0 6 .6 8.5 1.7s4.5 2.7 5.8 4.8 2.1 4.5 2.1 7.2h-10.6c0-1.8-.5-3.2-1.6-4.2s-2.6-1.5-4.5-1.5-3.4.4-4.5 1.3c-1.1.8-1.6 1.9-1.6 3.2 0 1.1.6 2.2 1.8 3.1 1.2.9 3.3 1.9 6.4 2.8 3 1 5.5 2 7.5 3.2 4.7 2.7 7.1 6.5 7.1 11.3 0 3.8-1.4 6.9-4.3 9.1-2.9 2.2-6.9 3.3-11.9 3.3-3.6 0-6.8-.6-9.7-1.9-2.9-1.3-5.1-3-6.5-5.3-1.5-2.2-2.2-4.8-2.2-7.7h10.6c0 2.4.6 4.1 1.8 5.2 1.2 1.1 3.2 1.7 5.9 1.7 1.8 0 3.1-.4 4.2-1.1 1-.7 1.5-1.8 1.5-3.2zm-150.9 49.5c0 4.3-.8 8.1-2.4 11.4-1.6 3.3-3.8 5.9-6.8 7.6-2.9 1.8-6.3 2.7-10 2.7s-7.1-.9-10-2.6-5.2-4.2-6.8-7.4c-1.6-3.2-2.5-6.9-2.6-11v-2.5c0-4.3.8-8.1 2.4-11.4 1.6-3.3 3.8-5.8 6.8-7.6 2.9-1.8 6.3-2.7 10.1-2.7 3.7 0 7 .9 10 2.7 2.9 1.8 5.2 4.3 6.8 7.6 1.6 3.3 2.4 7 2.5 11.3v1.9zm-10.8-1.8c0-4.4-.7-7.7-2.2-10s-3.5-3.4-6.3-3.4c-5.3 0-8.1 4-8.4 12v3.2c0 4.3.7 7.6 2.1 9.9 1.4 2.3 3.6 3.5 6.4 3.5 2.7 0 4.7-1.1 6.2-3.4 1.4-2.3 2.2-5.6 2.2-9.8v-2zm39.7 8v14.9h-10.6v-44h17.5c3.4 0 6.3.6 8.9 1.9 2.6 1.2 4.6 3 6 5.3s2.1 4.9 2.1 7.8c0 4.3-1.5 7.7-4.6 10.3s-7.3 3.9-12.6 3.9l-6.7-.1zm0-8.2h6.9c2.1 0 3.6-.5 4.7-1.5s1.6-2.5 1.6-4.4c0-2.1-.6-3.7-1.7-4.9-1.1-1.2-2.6-1.9-4.5-1.9h-7.1v12.7h.1zm39.1 15h18.4v8.2h-29v-44h10.6v35.8zm47.2-.1h-14.5l-2.5 8.2h-11.3l16.1-44h10l16.2 44h-11.4l-2.6-8.2zm-12-8.2h9.5l-4.7-15.3-4.8 15.3zm64.6 16.4h-10.5l-15.6-27.4v27.4h-10.6v-44h10.6l15.5 27.4v-27.4h10.6v44zm42.7-21.1c0 4.3-.8 8.1-2.4 11.4s-3.8 5.9-6.8 7.6c-2.9 1.8-6.3 2.7-10 2.7s-7.1-.9-10-2.6-5.2-4.2-6.8-7.4c-1.6-3.2-2.5-6.9-2.6-11v-2.5c0-4.3.8-8.1 2.4-11.4 1.6-3.3 3.8-5.8 6.8-7.6 2.9-1.8 6.3-2.7 10.1-2.7 3.7 0 7 .9 10 2.7 2.9 1.8 5.2 4.3 6.8 7.6 1.6 3.3 2.4 7 2.5 11.3v1.9zm-10.8-1.8c0-4.4-.7-7.7-2.2-10s-3.5-3.4-6.3-3.4c-5.3 0-8.1 4-8.4 12v3.2c0 4.3.7 7.6 2.1 9.9s3.6 3.5 6.4 3.5c2.7 0 4.7-1.1 6.2-3.4 1.4-2.3 2.2-5.6 2.2-9.8v-2zm-201.4 66.9c-.1 3.1-1 5.8-2.5 8.1s-3.6 4.2-6.4 5.5c-2.7 1.3-5.8 1.9-9.3 1.9-5.8 0-10.3-1.9-13.6-5.7-3.3-3.8-5-9.1-5-16v-2.2c0-4.3.7-8.1 2.2-11.3 1.5-3.2 3.7-5.7 6.5-7.5 2.8-1.8 6.1-2.6 9.8-2.6 5.3 0 9.6 1.4 12.9 4.2 3.2 2.8 5.1 6.7 5.5 11.6h-10.6c-.1-2.7-.8-4.6-2-5.8-1.3-1.2-3.2-1.8-5.8-1.8s-4.6 1-5.8 3c-1.2 2-1.9 5.1-1.9 9.5v3.1c0 4.7.6 8.1 1.8 10.1 1.2 2 3.2 3 6.1 3 2.4 0 4.3-.6 5.6-1.7s2-3 2.1-5.5l10.4.1zm31-3.8h-16.7v10.5h19.7v8.2h-30.3v-44h30.3v8.2h-19.7v9.3h16.7v7.8zm22.5 3.1h-5.7v15.6h-10.6v-44h17.3c5.2 0 9.3 1.2 12.2 3.5s4.4 5.6 4.4 9.8c0 3.1-.6 5.6-1.9 7.6-1.2 2-3.2 3.6-5.8 4.9l9.2 17.8v.5h-11.4l-7.7-15.7zm-5.8-8.2h6.7c2 0 3.5-.5 4.5-1.6s1.5-2.5 1.5-4.4-.5-3.4-1.5-4.5-2.5-1.6-4.5-1.6h-6.7v12.1zm61.5-12.1h-13.2v35.8h-10.6v-35.8h-13v-8.2h36.8v8.2zm39.7 14.8c0 4.3-.8 8.1-2.4 11.4-1.6 3.3-3.8 5.9-6.8 7.6-2.9 1.8-6.3 2.7-10 2.7s-7.1-.9-10-2.6-5.2-4.2-6.8-7.4c-1.6-3.2-2.5-6.9-2.6-11v-2.5c0-4.3.8-8.1 2.4-11.4 1.6-3.3 3.8-5.8 6.8-7.6 2.9-1.8 6.3-2.7 10.1-2.7 3.7 0 7 .9 10 2.7 2.9 1.8 5.2 4.3 6.8 7.6 1.6 3.3 2.4 7 2.5 11.3v1.9zm-10.8-1.9c0-4.4-.7-7.7-2.2-10s-3.5-3.4-6.3-3.4c-5.3 0-8.1 4-8.4 12v3.2c0 4.3.7 7.6 2.1 9.9s3.6 3.5 6.4 3.5c2.7 0 4.7-1.1 6.2-3.4 1.4-2.3 2.2-5.6 2.2-9.8v-2zm-163.1 67v14.9h-10.6v-44h17.5c3.4 0 6.3.6 8.9 1.9 2.6 1.2 4.6 3 6 5.3s2.1 4.9 2.1 7.8c0 4.3-1.5 7.7-4.6 10.3s-7.3 3.9-12.6 3.9l-6.7-.1zm0-8.2h6.9c2.1 0 3.6-.5 4.7-1.5s1.6-2.5 1.6-4.4c0-2.1-.6-3.7-1.7-4.9-1.1-1.2-2.6-1.9-4.5-1.9h-7.1v12.7h.1zm48 14.9h-14.5l-2.5 8.2h-11.3l16.1-44h10l16.2 44h-11.4l-2.6-8.2zm-11.9-8.2h9.5l-4.7-15.3-4.8 15.3zm44.2.8h-5.7v15.6h-10.6v-44h17.3c5.2 0 9.3 1.2 12.2 3.5 2.9 2.3 4.4 5.6 4.4 9.8 0 3.1-.6 5.6-1.9 7.6-1.2 2-3.2 3.6-5.8 4.9l9.2 17.8v.5h-11.4l-7.7-15.7zm-5.8-8.1h6.7c2 0 3.5-.5 4.5-1.6s1.5-2.5 1.5-4.4-.5-3.4-1.5-4.5-2.5-1.6-4.5-1.6h-6.7v12.1zm53.5 15.5h-14.5l-2.5 8.2h-11.3l16.1-44h10l16.2 44h-11.4l-2.6-8.2zm-12-8.2h9.5l-4.7-15.3-4.8 15.3zm64.8 4.7c0-1.6-.5-2.8-1.6-3.6-1.1-.9-3-1.8-5.8-2.7-2.8-.9-5-1.8-6.8-2.7-5.7-2.8-8.5-6.7-8.5-11.5 0-2.4.7-4.6 2.1-6.5s3.4-3.3 6-4.4c2.6-1 5.5-1.6 8.8-1.6 3.2 0 6 .6 8.5 1.7s4.5 2.7 5.8 4.8c1.4 2.1 2.1 4.5 2.1 7.2h-10.6c0-1.8-.5-3.2-1.6-4.2s-2.6-1.5-4.5-1.5-3.4.4-4.5 1.3c-1.1.8-1.6 1.9-1.6 3.2 0 1.1.6 2.2 1.8 3.1 1.2.9 3.3 1.9 6.4 2.8 3 1 5.5 2 7.5 3.2 4.7 2.7 7.1 6.5 7.1 11.3 0 3.9-1.4 6.9-4.3 9.1-2.9 2.2-6.9 3.3-11.9 3.3-3.6 0-6.8-.6-9.7-1.9-2.9-1.3-5.1-3-6.5-5.3-1.5-2.2-2.2-4.8-2.2-7.7h10.6c0 2.4.6 4.1 1.8 5.2 1.2 1.1 3.2 1.7 5.9 1.7 1.8 0 3.1-.4 4.2-1.1 1-.8 1.5-1.8 1.5-3.2zm26.1 11.7h-10.6v-44h10.6v44zm11.9-9.9c1.6 0 2.9.5 4 1.4 1.1 1 1.6 2.2 1.6 3.7s-.5 2.7-1.6 3.7-2.4 1.4-4 1.4-3-.5-4-1.5c-1.1-1-1.6-2.2-1.6-3.7s.5-2.7 1.6-3.7c1-.8 2.4-1.3 4-1.3z"/>
</svg>
